<svg xmlns="http://www.w3.org/2000/svg" width="43.952" height="43.952" viewBox="0 0 43.952 43.952">
  <path id="Path_21" data-name="Path 21" d="M21.976,0A21.976,21.976,0,1,0,43.952,21.976,21.979,21.979,0,0,0,21.976,0ZM34.519,27.179a9.258,9.258,0,0,1-.586,3.063,6.452,6.452,0,0,1-3.691,3.691,9.265,9.265,0,0,1-3.063.586c-1.346.061-1.776.076-5.2.076s-3.857-.015-5.2-.076a9.265,9.265,0,0,1-3.063-.586,6.452,6.452,0,0,1-3.691-3.691,9.256,9.256,0,0,1-.586-3.063c-.062-1.346-.076-1.776-.076-5.2s.014-3.857.076-5.2a9.259,9.259,0,0,1,.586-3.063A6.457,6.457,0,0,1,13.71,10.02a9.267,9.267,0,0,1,3.063-.586c1.346-.061,1.776-.076,5.2-.076s3.857.015,5.2.076a9.269,9.269,0,0,1,3.063.586,6.454,6.454,0,0,1,3.691,3.691,9.257,9.257,0,0,1,.587,3.063c.061,1.346.076,1.776.076,5.2S34.581,25.833,34.519,27.179Zm0,0" fill="#f8f8f8"/>
</svg>
